<?xml version="1.0" encoding="UTF-8" ?>
<!DOCTYPE svg PUBLIC "-//W3C//DTD SVG 1.1//EN" "http://www.w3.org/Graphics/SVG/1.1/DTD/svg11.dtd">
<svg width="365pt" height="481pt" viewBox="0 0 365 481" version="1.1" xmlns="http://www.w3.org/2000/svg">
<g id="#ffffffff">
<path fill="#ffffff" opacity="1.00" d=" M 271.00 18.95 C 275.31 17.08 280.11 16.19 284.77 17.22 C 286.12 26.41 284.83 35.75 285.09 45.00 C 285.43 50.04 283.79 54.93 283.96 59.97 C 284.17 67.14 282.51 74.29 283.54 81.45 C 289.33 82.43 295.21 80.96 301.01 81.87 C 306.94 82.80 313.06 83.05 318.73 85.22 C 322.30 86.60 326.22 87.29 329.32 89.67 C 335.92 94.18 339.64 101.70 342.19 109.04 C 342.71 115.87 339.07 122.13 336.09 128.03 C 332.74 133.06 330.80 139.10 326.19 143.20 C 322.49 146.54 320.27 151.29 316.09 154.14 C 310.56 158.01 305.03 161.91 299.11 165.18 C 288.65 172.01 276.37 175.07 264.98 179.94 C 238.22 189.25 211.03 197.26 184.16 206.24 C 178.99 207.83 174.36 210.74 169.18 212.32 C 159.34 216.07 148.64 217.88 139.69 223.69 C 135.73 225.89 132.22 228.99 130.12 233.07 C 126.25 240.51 124.55 248.81 121.74 256.66 C 113.35 282.03 105.61 307.65 95.38 332.36 C 90.65 342.36 86.47 353.38 88.51 364.63 C 89.26 368.33 92.22 371.93 96.15 372.34 C 100.12 372.43 103.90 370.94 107.52 369.48 C 116.64 365.59 126.03 362.31 134.90 357.85 C 143.65 351.67 153.68 347.72 163.39 343.34 C 167.08 341.82 171.38 339.51 175.29 341.72 C 177.51 345.54 175.05 350.35 171.73 352.58 C 163.30 352.39 154.69 354.14 147.32 358.35 C 143.26 360.63 138.38 361.66 135.12 365.20 C 134.41 395.91 120.09 424.79 121.36 455.65 C 128.56 462.22 139.21 462.23 148.18 460.08 C 158.77 457.28 169.36 454.08 179.14 449.07 C 217.18 429.70 249.25 401.01 280.93 372.86 C 283.15 371.00 285.48 368.36 288.72 369.10 C 289.19 370.05 289.65 371.02 290.09 372.00 C 289.53 373.38 289.09 374.89 287.98 375.96 C 283.30 380.62 277.96 384.58 273.33 389.31 C 253.19 407.46 231.62 423.97 209.23 439.24 C 189.17 453.67 166.18 465.85 141.02 467.13 C 133.51 467.12 125.10 468.11 118.69 463.33 C 113.74 459.97 111.94 453.71 111.96 448.00 C 112.19 440.69 114.29 433.64 116.66 426.78 C 121.62 408.59 128.62 390.24 126.68 371.05 C 122.57 370.88 118.84 372.85 115.01 374.03 C 106.79 376.39 97.78 380.31 89.31 376.76 C 87.05 375.57 83.99 374.44 83.44 371.63 C 80.75 357.67 83.44 343.13 89.10 330.22 C 94.73 315.23 102.10 300.89 106.38 285.41 C 111.53 269.88 115.05 253.79 121.65 238.77 C 122.81 235.58 125.10 232.70 124.97 229.17 C 115.46 230.25 106.87 235.10 97.43 236.54 C 79.69 242.86 61.91 249.16 43.63 253.75 C 39.15 254.85 34.70 256.70 29.99 256.17 C 15.47 255.06 4.60 239.35 7.29 225.33 C 8.19 220.62 11.76 217.18 14.46 213.45 C 35.91 188.50 64.75 171.16 85.88 145.97 C 90.01 134.78 88.90 122.68 88.93 110.99 C 88.91 97.94 87.42 84.58 90.74 71.79 C 91.54 67.40 96.03 65.55 99.26 63.18 C 122.74 48.05 151.40 46.37 177.53 38.40 C 188.02 35.49 198.95 34.66 209.61 32.60 C 216.20 29.99 223.33 29.75 230.16 28.08 C 236.89 26.51 243.93 26.59 250.52 24.36 C 257.20 22.00 264.45 21.77 271.00 18.95 M 268.02 27.09 C 225.13 39.48 180.09 42.30 137.39 55.43 C 126.98 58.67 115.79 60.35 106.60 66.61 C 100.44 70.60 96.13 77.54 96.16 84.98 C 96.06 103.31 96.05 121.65 96.17 139.98 C 95.73 142.81 98.98 143.85 101.18 144.27 C 106.67 144.44 112.23 143.16 117.69 144.18 C 119.21 144.47 121.51 145.98 119.62 147.51 C 113.06 151.46 104.98 150.93 98.14 154.12 C 95.54 155.08 95.23 158.24 94.62 160.56 C 93.13 167.04 94.37 174.58 89.86 180.04 C 89.46 179.96 88.67 179.78 88.27 179.70 C 86.78 174.53 87.32 169.04 86.05 163.84 C 85.75 162.80 85.57 161.38 84.18 161.39 C 80.15 163.41 77.06 166.80 73.45 169.45 C 64.72 175.98 56.19 182.79 48.02 190.01 C 38.16 197.76 29.61 207.00 21.51 216.53 C 18.23 220.68 14.00 224.67 13.35 230.20 C 13.21 235.52 16.26 240.43 19.95 244.04 C 24.25 246.83 29.44 249.34 34.71 248.52 C 55.46 243.66 75.80 237.25 96.23 231.21 C 137.64 222.42 175.72 203.08 216.25 191.37 C 231.67 187.88 246.63 182.55 261.09 176.17 C 269.68 172.59 278.31 169.07 287.10 165.98 C 292.68 164.04 297.68 160.84 302.58 157.60 C 319.33 147.11 332.48 130.77 338.61 111.97 C 338.52 104.60 333.80 98.17 328.61 93.34 C 320.17 87.21 309.18 85.96 299.02 86.17 C 294.65 86.35 290.07 85.41 285.86 86.86 C 282.77 88.16 283.34 92.11 282.82 94.81 C 281.14 104.66 285.01 114.27 285.98 123.98 C 286.07 125.51 285.99 127.09 285.45 128.54 C 284.34 129.83 282.63 129.21 281.26 128.88 C 279.33 122.62 277.47 116.29 276.18 109.86 C 275.63 99.59 275.78 89.29 275.67 79.00 C 275.63 76.11 275.87 73.22 276.32 70.36 C 277.22 64.95 276.72 59.44 277.19 54.00 C 277.85 45.82 279.11 37.69 279.25 29.48 C 279.11 27.95 279.23 25.95 277.74 25.03 C 274.37 24.72 271.22 26.28 268.02 27.09 Z" />
</g>
</svg>
